{
    "asset" : {
        "generator" : "Khronos glTF Blender I/O v3.4.49",
        "version" : "2.0"
    },
    "scene" : 0,
    "scenes" : [
        {
            "name" : "Scene",
            "nodes" : [
                0
            ]
        }
    ],
    "nodes" : [
        {
            "mesh" : 0,
            "name" : "Low_Teeth27_Low_Teeth27_0",
            "rotation" : [
                -0.7071066498756409,
                0,
                0,
                0.70710688829422
            ],
            "translation" : [
                0,
                1.707798719406128,
                0
            ]
        }
    ],
    "materials" : [
        {
            "doubleSided" : true,
            "name" : "Low_Teeth27.001",
            "pbrMetallicRoughness" : {
                "baseColorFactor" : [
                    0.5,
                    0.5,
                    0.5,
                    1
                ],
                "metallicFactor" : 0
            }
        },
        {
            "doubleSided" : true,
            "name" : "Low_Teeth25.001",
            "pbrMetallicRoughness" : {
                "baseColorFactor" : [
                    0.5,
                    0.5,
                    0.5,
                    1
                ],
                "metallicFactor" : 0
            }
        }
    ],
    "meshes" : [
        {
            "name" : "Low_Teeth27_Low_Teeth27_0.001",
            "primitives" : [
                {
                    "attributes" : {
                        "COLOR_0" : 0,
                        "POSITION" : 1,
                        "TEXCOORD_0" : 2,
                        "TEXCOORD_1" : 3,
                        "NORMAL" : 4
                    },
                    "indices" : 5,
                    "material" : 0
                },
                {
                    "attributes" : {
                        "COLOR_0" : 6,
                        "POSITION" : 7,
                        "TEXCOORD_0" : 8,
                        "TEXCOORD_1" : 9,
                        "NORMAL" : 10
                    },
                    "indices" : 11,
                    "material" : 1
                }
            ]
        }
    ],
    "accessors" : [
        {
            "bufferView" : 0,
            "componentType" : 5123,
            "count" : 5255,
            "normalized" : true,
            "type" : "VEC4"
        },
        {
            "bufferView" : 1,
            "componentType" : 5126,
            "count" : 5255,
            "max" : [
                0.45954614877700806,
                0.6138983964920044,
                0.2277393937110901
            ],
            "min" : [
                -0.47634899616241455,
                -0.13819801807403564,
                -0.7342733144760132
            ],
            "type" : "VEC3"
        },
        {
            "bufferView" : 2,
            "componentType" : 5126,
            "count" : 5255,
            "type" : "VEC2"
        },
        {
            "bufferView" : 3,
            "componentType" : 5126,
            "count" : 5255,
            "type" : "VEC2"
        },
        {
            "bufferView" : 4,
            "componentType" : 5126,
            "count" : 5255,
            "type" : "VEC3"
        },
        {
            "bufferView" : 5,
            "componentType" : 5123,
            "count" : 30426,
            "type" : "SCALAR"
        },
        {
            "bufferView" : 6,
            "componentType" : 5123,
            "count" : 14360,
            "normalized" : true,
            "type" : "VEC4"
        },
        {
            "bufferView" : 7,
            "componentType" : 5126,
            "count" : 14360,
            "max" : [
                0.42845436930656433,
                0.6055827140808105,
                0.22272413969039917
            ],
            "min" : [
                -0.45476004481315613,
                -0.1240311861038208,
                -0.6104024648666382
            ],
            "type" : "VEC3"
        },
        {
            "bufferView" : 8,
            "componentType" : 5126,
            "count" : 14360,
            "type" : "VEC2"
        },
        {
            "bufferView" : 9,
            "componentType" : 5126,
            "count" : 14360,
            "type" : "VEC2"
        },
        {
            "bufferView" : 10,
            "componentType" : 5126,
            "count" : 14360,
            "type" : "VEC3"
        },
        {
            "bufferView" : 11,
            "componentType" : 5123,
            "count" : 80802,
            "type" : "SCALAR"
        }
    ],
    "bufferViews" : [
        {
            "buffer" : 0,
            "byteLength" : 42040,
            "byteOffset" : 0,
            "target" : 34962
        },
        {
            "buffer" : 0,
            "byteLength" : 63060,
            "byteOffset" : 42040,
            "target" : 34962
        },
        {
            "buffer" : 0,
            "byteLength" : 42040,
            "byteOffset" : 105100,
            "target" : 34962
        },
        {
            "buffer" : 0,
            "byteLength" : 42040,
            "byteOffset" : 147140,
            "target" : 34962
        },
        {
            "buffer" : 0,
            "byteLength" : 63060,
            "byteOffset" : 189180,
            "target" : 34962
        },
        {
            "buffer" : 0,
            "byteLength" : 60852,
            "byteOffset" : 252240,
            "target" : 34963
        },
        {
            "buffer" : 0,
            "byteLength" : 114880,
            "byteOffset" : 313092,
            "target" : 34962
        },
        {
            "buffer" : 0,
            "byteLength" : 172320,
            "byteOffset" : 427972,
            "target" : 34962
        },
        {
            "buffer" : 0,
            "byteLength" : 114880,
            "byteOffset" : 600292,
            "target" : 34962
        },
        {
            "buffer" : 0,
            "byteLength" : 114880,
            "byteOffset" : 715172,
            "target" : 34962
        },
        {
            "buffer" : 0,
            "byteLength" : 172320,
            "byteOffset" : 830052,
            "target" : 34962
        },
        {
            "buffer" : 0,
            "byteLength" : 161604,
            "byteOffset" : 1002372,
            "target" : 34963
        }
    ],
    "buffers" : [
        {
            "byteLength" : 1163976,
            "uri" : "data:application/octet-stream;base64,"
        }
    ]
}
