{
    "asset" : {
        "generator" : "Khronos glTF Blender I/O v3.4.49",
        "version" : "2.0"
    },
    "extensionsUsed" : [
        "KHR_materials_specular"
    ],
    "scene" : 0,
    "scenes" : [
        {
            "name" : "Scene",
            "nodes" : [
                6
            ]
        }
    ],
    "nodes" : [
        {
            "mesh" : 0,
            "name" : "Object_2"
        },
        {
            "mesh" : 1,
            "name" : "Object_3"
        },
        {
            "mesh" : 2,
            "name" : "Object_4"
        },
        {
            "mesh" : 3,
            "name" : "Object_5"
        },
        {
            "mesh" : 4,
            "name" : "Object_6"
        },
        {
            "children" : [
                0,
                1,
                2,
                3,
                4
            ],
            "name" : "4639cb84395e47e89a734aa9882e7e37.obj.cleaner.materialmerger.gle"
        },
        {
            "children" : [
                5
            ],
            "name" : "Sketchfab_model",
            "rotation" : [
                -0.70710688829422,
                0,
                0,
                0.7071066498756409
            ],
            "scale" : [
                0.03343265876173973,
                0.03343266248703003,
                0.03343266248703003
            ]
        }
    ],
    "materials" : [
        {
            "doubleSided" : true,
            "extensions" : {
                "KHR_materials_specular" : {
                    "specularColorFactor" : [
                        1,
                        1,
                        1
                    ]
                }
            },
            "name" : "material_0",
            "pbrMetallicRoughness" : {
                "metallicFactor" : 0,
                "roughnessFactor" : 0.7699999809265137
            }
        }
    ],
    "meshes" : [
        {
            "name" : "Object_0",
            "primitives" : [
                {
                    "attributes" : {
                        "POSITION" : 0,
                        "NORMAL" : 1
                    },
                    "indices" : 2,
                    "material" : 0
                }
            ]
        },
        {
            "name" : "Object_1",
            "primitives" : [
                {
                    "attributes" : {
                        "POSITION" : 3,
                        "NORMAL" : 4
                    },
                    "indices" : 5,
                    "material" : 0
                }
            ]
        },
        {
            "name" : "Object_2",
            "primitives" : [
                {
                    "attributes" : {
                        "POSITION" : 6,
                        "NORMAL" : 7
                    },
                    "indices" : 8,
                    "material" : 0
                }
            ]
        },
        {
            "name" : "Object_3",
            "primitives" : [
                {
                    "attributes" : {
                        "POSITION" : 9,
                        "NORMAL" : 10
                    },
                    "indices" : 11,
                    "material" : 0
                }
            ]
        },
        {
            "name" : "Object_4",
            "primitives" : [
                {
                    "attributes" : {
                        "POSITION" : 12,
                        "NORMAL" : 13
                    },
                    "indices" : 14,
                    "material" : 0
                }
            ]
        }
    ],
    "accessors" : [
        {
            "bufferView" : 0,
            "componentType" : 5126,
            "count" : 12865,
            "max" : [
                6.030857086181641,
                5.475698947906494,
                18.92306900024414
            ],
            "min" : [
                -10.856186866760254,
                -3.2752621173858643,
                -39.85919189453125
            ],
            "type" : "VEC3"
        },
        {
            "bufferView" : 1,
            "componentType" : 5126,
            "count" : 12865,
            "type" : "VEC3"
        },
        {
            "bufferView" : 2,
            "componentType" : 5123,
            "count" : 35907,
            "type" : "SCALAR"
        },
        {
            "bufferView" : 3,
            "componentType" : 5126,
            "count" : 13305,
            "max" : [
                10.677481651306152,
                5.403014183044434,
                23.958864212036133
            ],
            "min" : [
                -6.839562892913818,
                -3.0786921977996826,
                -9.371281623840332
            ],
            "type" : "VEC3"
        },
        {
            "bufferView" : 4,
            "componentType" : 5126,
            "count" : 13305,
            "type" : "VEC3"
        },
        {
            "bufferView" : 5,
            "componentType" : 5123,
            "count" : 57618,
            "type" : "SCALAR"
        },
        {
            "bufferView" : 6,
            "componentType" : 5126,
            "count" : 15302,
            "max" : [
                10.571916580200195,
                5.462878227233887,
                18.934011459350586
            ],
            "min" : [
                -10.712850570678711,
                -5.298466682434082,
                -42.98789978027344
            ],
            "type" : "VEC3"
        },
        {
            "bufferView" : 7,
            "componentType" : 5126,
            "count" : 15302,
            "type" : "VEC3"
        },
        {
            "bufferView" : 8,
            "componentType" : 5123,
            "count" : 55509,
            "type" : "SCALAR"
        },
        {
            "bufferView" : 9,
            "componentType" : 5126,
            "count" : 2180,
            "max" : [
                5.362245082855225,
                4.586350440979004,
                14.293211936950684
            ],
            "min" : [
                -5.362245082855225,
                -3.8996989727020264,
                0.3042911887168884
            ],
            "type" : "VEC3"
        },
        {
            "bufferView" : 10,
            "componentType" : 5126,
            "count" : 2180,
            "type" : "VEC3"
        },
        {
            "bufferView" : 11,
            "componentType" : 5123,
            "count" : 6015,
            "type" : "SCALAR"
        },
        {
            "bufferView" : 12,
            "componentType" : 5126,
            "count" : 12665,
            "max" : [
                0.8460760116577148,
                3.8018651008605957,
                17.54922103881836
            ],
            "min" : [
                -0.8580769896507263,
                -0.04387800022959709,
                -4.6479878425598145
            ],
            "type" : "VEC3"
        },
        {
            "bufferView" : 13,
            "componentType" : 5126,
            "count" : 12665,
            "type" : "VEC3"
        },
        {
            "bufferView" : 14,
            "componentType" : 5123,
            "count" : 71088,
            "type" : "SCALAR"
        }
    ],
    "bufferViews" : [
        {
            "buffer" : 0,
            "byteLength" : 154380,
            "byteOffset" : 0,
            "target" : 34962
        },
        {
            "buffer" : 0,
            "byteLength" : 154380,
            "byteOffset" : 154380,
            "target" : 34962
        },
        {
            "buffer" : 0,
            "byteLength" : 71814,
            "byteOffset" : 308760,
            "target" : 34963
        },
        {
            "buffer" : 0,
            "byteLength" : 159660,
            "byteOffset" : 380576,
            "target" : 34962
        },
        {
            "buffer" : 0,
            "byteLength" : 159660,
            "byteOffset" : 540236,
            "target" : 34962
        },
        {
            "buffer" : 0,
            "byteLength" : 115236,
            "byteOffset" : 699896,
            "target" : 34963
        },
        {
            "buffer" : 0,
            "byteLength" : 183624,
            "byteOffset" : 815132,
            "target" : 34962
        },
        {
            "buffer" : 0,
            "byteLength" : 183624,
            "byteOffset" : 998756,
            "target" : 34962
        },
        {
            "buffer" : 0,
            "byteLength" : 111018,
            "byteOffset" : 1182380,
            "target" : 34963
        },
        {
            "buffer" : 0,
            "byteLength" : 26160,
            "byteOffset" : 1293400,
            "target" : 34962
        },
        {
            "buffer" : 0,
            "byteLength" : 26160,
            "byteOffset" : 1319560,
            "target" : 34962
        },
        {
            "buffer" : 0,
            "byteLength" : 12030,
            "byteOffset" : 1345720,
            "target" : 34963
        },
        {
            "buffer" : 0,
            "byteLength" : 151980,
            "byteOffset" : 1357752,
            "target" : 34962
        },
        {
            "buffer" : 0,
            "byteLength" : 151980,
            "byteOffset" : 1509732,
            "target" : 34962
        },
        {
            "buffer" : 0,
            "byteLength" : 142176,
            "byteOffset" : 1661712,
            "target" : 34963
        }
    ],
    "buffers" : [
        {
            "byteLength" : 1803888,
            "uri" : "data:application/octet-stream;base64,"
        }
    ]
}
