{
  "asset": {
    "version": "2.0",
    "generator": "THREE.GLTFExporter"
  },
  "scenes": [
    {
      "nodes": [
        0
      ]
    }
  ],
  "scene": 0,
  "nodes": [
    {
      "children": [
        7
      ],
      "matrix": [
        0.01,
        0,
        0,
        0,
        0,
        0.01,
        0,
        0,
        0,
        0,
        0.01,
        0,
        0,
        0,
        0,
        1
      ]
    },
    {
      "matrix": [
        1,
        0,
        0,
        0,
        0,
        1,
        0,
        0,
        0,
        0,
        1,
        0,
        7.105427357601002e-15,
        35.05280797575688,
        0,
        1
      ],
      "name": "Cube",
      "mesh": 0
    },
    {
      "matrix": [
        -1,
        1.7797583114599315e-16,
        0,
        0,
        -1.7797583114599315e-16,
        -1,
        0,
        0,
        0,
        0,
        1,
        0,
        -4.905890644875463e-15,
        -35.05280797575686,
        0,
        1
      ],
      "name": "Cube 2",
      "mesh": 1
    },
    {
      "matrix": [
        1,
        0,
        0,
        0,
        0,
        1,
        0,
        0,
        0,
        0,
        1,
        0,
        -7.105427357601002e-15,
        95.80433048206032,
        0,
        1
      ],
      "name": "Capsule",
      "children": [
        1,
        2
      ]
    },
    {
      "matrix": [
        0.5053508371312032,
        0.30733581523489495,
        -0.8063282384269416,
        0,
        -0.5196150082204442,
        0.8544005168725425,
        0,
        0,
        0.6889272636809055,
        0.4189802542385915,
        0.5914683186065889,
        0,
        0,
        0,
        0,
        1
      ],
      "name": "Directional Light",
      "extensions": {
        "KHR_lights_punctual": {
          "light": 0
        }
      }
    },
    {
      "matrix": [
        0.9103701187322134,
        -4.652209874278501e-8,
        -0.4137949334144794,
        0,
        0.06579653147457054,
        0.9872773780738341,
        0.14475563957777773,
        0,
        0.4085303701873479,
        -0.15900748015000263,
        0.8987878269596974,
        0,
        373.3131584410717,
        -42.19025498186204,
        839.9993457029933,
        1
      ],
      "camera": 0
    },
    {
      "matrix": [
        1,
        0,
        0,
        0,
        0,
        1,
        0,
        0,
        0,
        0,
        1,
        0,
        0,
        1,
        0,
        1
      ],
      "name": "Default Ambient Light"
    },
    {
      "name": "Scene 1",
      "children": [
        3,
        4,
        5,
        6
      ]
    }
  ],
  "bufferViews": [
    {
      "buffer": 0,
      "byteOffset": 0,
      "byteLength": 172032,
      "target": 34962,
      "byteStride": 12
    },
    {
      "buffer": 0,
      "byteOffset": 172032,
      "byteLength": 172032,
      "target": 34962,
      "byteStride": 12
    },
    {
      "buffer": 0,
      "byteOffset": 344064,
      "byteLength": 86016,
      "target": 34963
    }
  ],
  "buffers": [
    {
      "byteLength": 430080,
      "uri": "data:application/octet-stream;base64,"
    }
  ],
  "accessors": [
    {
      "bufferView": 0,
      "componentType": 5126,
      "count": 14336,
      "max": [
        45.8984375,
        76.39305114746094,
        45.8984375
      ],
      "min": [
        -45.8984375,
        -48.56553649902344,
        -45.8984375
      ],
      "type": "VEC3"
    },
    {
      "bufferView": 1,
      "componentType": 5126,
      "count": 14336,
      "max": [
        1,
        1,
        1
      ],
      "min": [
        -1,
        -0.9999809861183167,
        -1
      ],
      "type": "VEC3"
    },
    {
      "bufferView": 2,
      "componentType": 5125,
      "count": 21504,
      "max": [
        14335
      ],
      "min": [
        0
      ],
      "type": "SCALAR"
    }
  ],
  "meshes": [
    {
      "primitives": [
        {
          "mode": 4,
          "attributes": {
            "POSITION": 0,
            "NORMAL": 1
          },
          "extras": {
            "type": "SubdivGeometry",
            "parameters": {
              "width": 100,
              "height": 131.0207290649414,
              "depth": 100
            }
          },
          "indices": 2
        }
      ]
    },
    {
      "primitives": [
        {
          "mode": 4,
          "attributes": {
            "POSITION": 0,
            "NORMAL": 1
          },
          "extras": {
            "type": "SubdivGeometry",
            "parameters": {
              "width": 100,
              "height": 131.0207290649414,
              "depth": 100
            }
          },
          "indices": 2
        }
      ]
    }
  ],
  "extensions": {
    "KHR_lights_punctual": {
      "lights": [
        {
          "name": "Directional Light",
          "color": [
            1,
            1,
            1
          ],
          "intensity": 0.7,
          "type": "directional"
        }
      ]
    }
  },
  "cameras": [
    {
      "type": "orthographic",
      "orthographic": {
        "xmag": 4.996230161038603,
        "ymag": 2.389607397666096,
        "zfar": 100000,
        "znear": 0
      }
    }
  ],
  "extensionsUsed": [
    "KHR_lights_punctual"
  ]
}